<svg width="448" height="410" viewBox="0 0 448 410" fill="none" xmlns="http://www.w3.org/2000/svg">
<g id="undraw_well_done_i2wr 1" clip-path="url(#clip0)">
<path id="Vector" d="M83.1117 86.7935C89.5089 90.1474 94.3945 95.8682 96.7598 102.775C99.1251 109.682 98.7897 117.248 95.8228 123.911C95.1603 125.443 97.5966 126.249 98.2547 124.727C101.37 117.517 101.687 109.378 99.1417 101.941C96.5968 94.5045 91.3782 88.32 84.5325 84.6281C83.0876 83.8503 81.656 86.0099 83.1117 86.7935Z" fill="white"/>
<path id="Vector_2" d="M422.879 69.9062C415.175 46.5146 391.387 33.5139 375.737 38.8321C360.088 44.1502 348.788 69.0748 356.492 92.4664C363.622 114.118 385.228 126.618 400.092 124.387C399.984 124.577 399.914 124.785 399.884 125.001L399.429 128.852C399.395 129.146 399.434 129.443 399.545 129.717C399.655 129.99 399.833 130.231 400.06 130.415C400.288 130.599 400.558 130.721 400.845 130.77C401.132 130.818 401.427 130.791 401.701 130.691L409.357 127.902C409.631 127.803 409.875 127.633 410.067 127.411C410.258 127.188 410.391 126.919 410.451 126.63C410.511 126.341 410.498 126.041 410.412 125.758C410.327 125.476 410.171 125.22 409.961 125.016L407.201 122.336C407.103 122.245 406.994 122.166 406.878 122.1C420.135 114.843 430.025 91.6052 422.879 69.9062Z" fill="#BD47E7"/>
<path id="Vector_3" d="M394.991 52.6966C401.389 56.0505 406.274 61.7713 408.639 68.6783C411.005 75.5853 410.669 83.1511 407.702 89.8142C407.04 91.3462 409.476 92.1519 410.134 90.6298C413.25 83.4204 413.566 75.2812 411.021 67.8444C408.476 60.4076 403.258 54.2231 396.412 50.5312C394.967 49.7534 393.536 51.913 394.991 52.6966Z" fill="white"/>
<g id="free-balloons">
<path id="Vector_4" d="M110.999 104.003C103.296 80.6115 79.5068 67.6107 63.8573 72.9289C48.2077 78.2471 36.9086 103.172 44.6119 126.563C51.7423 148.215 73.3484 160.715 88.2117 158.484C88.1045 158.674 88.034 158.882 88.0039 159.098L87.5494 162.949C87.5147 163.242 87.5545 163.54 87.665 163.814C87.7754 164.087 87.9529 164.327 88.1805 164.512C88.4081 164.696 88.6782 164.818 88.9653 164.866C89.2525 164.915 89.547 164.888 89.8209 164.788L97.4773 161.999C97.7512 161.899 97.9956 161.73 98.187 161.508C98.3785 161.285 98.5107 161.016 98.5712 160.727C98.6317 160.438 98.6184 160.138 98.5326 159.855C98.4468 159.573 98.2913 159.317 98.081 159.113L95.3211 156.433C95.223 156.342 95.1146 156.263 94.9982 156.197C108.255 148.94 118.145 125.702 110.999 104.003Z" fill="#9C1A1A"/>
<path id="Vector_5" d="M241.765 32.2576C234.061 8.86596 210.273 -4.13477 194.623 1.18341C178.974 6.50159 167.674 31.4261 175.378 54.8178C182.508 76.4697 204.114 88.9693 218.977 86.7387C218.87 86.928 218.8 87.1365 218.77 87.3527L218.315 91.2034C218.28 91.4969 218.32 91.7946 218.431 92.0681C218.541 92.3416 218.719 92.5819 218.946 92.7662C219.174 92.9504 219.444 93.0725 219.731 93.1209C220.018 93.1693 220.313 93.1423 220.587 93.0425L228.243 90.2537C228.517 90.1539 228.761 89.9847 228.953 89.762C229.144 89.5393 229.276 89.2706 229.337 88.9814C229.397 88.6922 229.384 88.3921 229.298 88.1096C229.213 87.8271 229.057 87.5716 228.847 87.3673L226.087 84.6874C225.989 84.5962 225.88 84.5171 225.764 84.4517C239.021 77.1944 248.911 53.9565 241.765 32.2576Z" fill="#F15252"/>
</g>
<path id="Vector_6" d="M213.877 15.048C220.275 18.4018 225.16 24.1227 227.526 31.0297C229.891 37.9366 229.555 45.5025 226.588 52.1655C225.926 53.6976 228.362 54.5032 229.02 52.9812C232.136 45.7718 232.452 37.6326 229.907 30.1958C227.363 22.759 222.144 16.5745 215.298 12.8826C213.853 12.1048 212.422 14.2644 213.877 15.048Z" fill="white"/>
<g id="stardust">
<path id="Vector_7" d="M203.129 144.814C204.143 144.814 204.964 143.979 204.964 142.95C204.964 141.92 204.143 141.085 203.129 141.085C202.116 141.085 201.294 141.92 201.294 142.95C201.294 143.979 202.116 144.814 203.129 144.814Z" fill="#FFC123"/>
<path id="Vector_8" d="M199.218 219.599C201.22 219.599 202.843 217.95 202.843 215.916C202.843 213.882 201.22 212.233 199.218 212.233C197.215 212.233 195.592 213.882 195.592 215.916C195.592 217.95 197.215 219.599 199.218 219.599Z" fill="#FFC123"/>
<path id="Vector_9" d="M138.523 205.418C139.68 205.418 140.618 204.465 140.618 203.29C140.618 202.115 139.68 201.162 138.523 201.162C137.366 201.162 136.428 202.115 136.428 203.29C136.428 204.465 137.366 205.418 138.523 205.418Z" fill="#FFC123"/>
<path id="Vector_10" d="M170.349 170.573C171.602 170.573 172.618 169.541 172.618 168.268C172.618 166.995 171.602 165.963 170.349 165.963C169.096 165.963 168.08 166.995 168.08 168.268C168.08 169.541 169.096 170.573 170.349 170.573Z" fill="#FFC123"/>
<path id="Vector_11" d="M281.986 305.502C282.999 305.502 283.821 304.667 283.821 303.638C283.821 302.608 282.999 301.773 281.986 301.773C280.972 301.773 280.15 302.608 280.15 303.638C280.15 304.667 280.972 305.502 281.986 305.502Z" fill="#FFC123"/>
<path id="Vector_12" d="M221.883 267.168C223.885 267.168 225.508 265.519 225.508 263.485C225.508 261.451 223.885 259.802 221.883 259.802C219.88 259.802 218.257 261.451 218.257 263.485C218.257 265.519 219.88 267.168 221.883 267.168Z" fill="#FFC123"/>
<path id="Vector_13" d="M263.167 218.687C264.324 218.687 265.262 217.734 265.262 216.559C265.262 215.384 264.324 214.431 263.167 214.431C262.01 214.431 261.072 215.384 261.072 216.559C261.072 217.734 262.01 218.687 263.167 218.687Z" fill="#FFC123"/>
<path id="Vector_14" d="M276.944 264.426C278.197 264.426 279.212 263.394 279.212 262.121C279.212 260.848 278.197 259.817 276.944 259.817C275.691 259.817 274.675 260.848 274.675 262.121C274.675 263.394 275.691 264.426 276.944 264.426Z" fill="#FFC123"/>
</g>
<path id="Vector_15" d="M399.141 383.122C401.143 381.42 398.438 374.789 393.099 368.311C387.76 361.834 381.809 357.963 379.808 359.666C377.806 361.368 380.511 367.999 385.85 374.477C391.189 380.954 397.14 384.825 399.141 383.122Z" fill="#2F2E41"/>
<path id="Vector_16" d="M357.442 396.675C374.075 396.675 387.559 382.978 387.559 366.082C387.559 349.186 374.075 335.489 357.442 335.489C340.81 335.489 327.326 349.186 327.326 366.082C327.326 382.978 340.81 396.675 357.442 396.675Z" fill="#2F2E41"/>
<path id="Vector_17" d="M370.189 390.092H361.04V406.743H370.189V390.092Z" fill="#2F2E41"/>
<path id="Vector_18" d="M351.891 390.092H342.742V406.743H351.891V390.092Z" fill="#2F2E41"/>
<path id="Vector_19" d="M362.565 409.841C366.776 409.841 370.189 408.541 370.189 406.937C370.189 405.333 366.776 404.033 362.565 404.033C358.354 404.033 354.941 405.333 354.941 406.937C354.941 408.541 358.354 409.841 362.565 409.841Z" fill="#2F2E41"/>
<path id="Vector_20" d="M344.267 409.454C348.478 409.454 351.891 408.154 351.891 406.55C351.891 404.946 348.478 403.645 344.267 403.645C340.056 403.645 336.642 404.946 336.642 406.55C336.642 408.154 340.056 409.454 344.267 409.454Z" fill="#2F2E41"/>
<path id="Vector_21" d="M347.986 327.626C350.675 316.625 362.546 310.151 374.499 313.166C386.453 316.181 393.963 327.543 391.274 338.545C388.585 349.546 379.663 349.581 367.71 346.566C355.756 343.551 345.297 338.627 347.986 327.626Z" fill="#3AEAD5"/>
<path id="Vector_22" d="M337.127 358.442C338.246 356.045 333.061 351.168 325.547 347.548C318.033 343.928 311.035 342.935 309.916 345.332C308.797 347.728 313.982 352.605 321.496 356.225C329.01 359.846 336.008 360.838 337.127 358.442Z" fill="#2F2E41"/>
<path id="Vector_23" d="M352.94 369.826C358.485 369.826 362.981 365.26 362.981 359.627C362.981 353.993 358.485 349.427 352.94 349.427C347.395 349.427 342.899 353.993 342.899 359.627C342.899 365.26 347.395 369.826 352.94 369.826Z" fill="white"/>
<path id="Vector_24" d="M348.813 359.37C350.662 359.37 352.16 357.848 352.16 355.971C352.16 354.093 350.662 352.571 348.813 352.571C346.965 352.571 345.466 354.093 345.466 355.971C345.466 357.848 346.965 359.37 348.813 359.37Z" fill="#3F3D56"/>
<path id="Vector_25" d="M359.239 380.877C359.396 381.756 359.382 382.657 359.196 383.53C359.011 384.403 358.658 385.23 358.158 385.964C357.657 386.698 357.02 387.325 356.281 387.809C355.542 388.293 354.717 388.625 353.852 388.785C352.987 388.945 352.1 388.93 351.24 388.742C350.381 388.553 349.567 388.195 348.844 387.686C348.121 387.178 347.504 386.531 347.028 385.78C346.551 385.03 346.225 384.191 346.067 383.313V383.313L346.065 383.3C345.407 379.604 348.219 378.297 351.857 377.628C355.495 376.959 358.58 377.182 359.239 380.877Z" fill="white"/>
<path id="Vector_26" d="M109.844 344.694C112.813 336.803 113.243 329.638 110.804 328.691C108.366 327.745 103.982 333.374 101.013 341.265C98.0434 349.157 97.6133 356.321 100.052 357.268C102.491 358.215 106.875 352.585 109.844 344.694Z" fill="#2F2E41"/>
<path id="Vector_27" d="M77.5917 396.675C94.2244 396.675 107.708 382.978 107.708 366.082C107.708 349.186 94.2244 335.489 77.5917 335.489C60.959 335.489 47.4755 349.186 47.4755 366.082C47.4755 382.978 60.959 396.675 77.5917 396.675Z" fill="#2F2E41"/>
<path id="Vector_28" d="M73.0171 390.092H63.8679V406.743H73.0171V390.092Z" fill="#2F2E41"/>
<path id="Vector_29" d="M91.3155 390.092H82.1663V406.743H91.3155V390.092Z" fill="#2F2E41"/>
<path id="Vector_30" d="M71.4923 409.841C75.7031 409.841 79.1167 408.541 79.1167 406.937C79.1167 405.333 75.7031 404.033 71.4923 404.033C67.2815 404.033 63.8679 405.333 63.8679 406.937C63.8679 408.541 67.2815 409.841 71.4923 409.841Z" fill="#2F2E41"/>
<path id="Vector_31" d="M89.7908 409.454C94.0016 409.454 97.4151 408.154 97.4151 406.55C97.4151 404.946 94.0016 403.645 89.7908 403.645C85.5799 403.645 82.1664 404.946 82.1664 406.55C82.1664 408.154 85.5799 409.454 89.7908 409.454Z" fill="#2F2E41"/>
<path id="Vector_32" d="M78.3542 368.793C84.0388 368.793 88.647 364.111 88.647 358.337C88.647 352.562 84.0388 347.881 78.3542 347.881C72.6696 347.881 68.0613 352.562 68.0613 358.337C68.0613 364.111 72.6696 368.793 78.3542 368.793Z" fill="white"/>
<path id="Vector_33" d="M78.3542 361.822C80.2491 361.822 81.7852 360.262 81.7852 358.337C81.7852 356.412 80.2491 354.852 78.3542 354.852C76.4593 354.852 74.9232 356.412 74.9232 358.337C74.9232 360.262 76.4593 361.822 78.3542 361.822Z" fill="#3F3D56"/>
<path id="Vector_34" d="M48.378 337.631C45.9462 326.568 53.7196 315.39 65.7402 312.663C77.7608 309.937 89.4767 316.695 91.9085 327.757C94.3402 338.82 86.3737 342.9 74.3531 345.627C62.3325 348.354 50.8097 348.694 48.378 337.631Z" fill="#F54040"/>
<path id="Vector_35" d="M57.2763 358.442C58.3951 356.045 53.2107 351.168 45.6966 347.548C38.1825 343.928 31.1842 342.935 30.0654 345.332C28.9466 347.728 34.131 352.605 41.6451 356.225C49.1592 359.846 56.1575 360.838 57.2763 358.442Z" fill="#2F2E41"/>
<path id="Vector_36" d="M62.7987 377.119C62.7987 380.113 70.3882 386.025 78.8099 386.025C87.2315 386.025 95.1277 377.596 95.1277 374.601C95.1277 371.607 87.2315 375.182 78.8099 375.182C70.3883 375.182 62.7987 374.124 62.7987 377.119Z" fill="white"/>
<path id="Vector_37" d="M221.447 367.55C238.08 367.55 251.564 353.853 251.564 336.957C251.564 320.061 238.08 306.365 221.447 306.365C204.815 306.365 191.331 320.061 191.331 336.957C191.331 353.853 204.815 367.55 221.447 367.55Z" fill="#2F2E41"/>
<path id="Vector_38" d="M216.873 360.967H207.724V377.619H216.873V360.967Z" fill="#2F2E41"/>
<path id="Vector_39" d="M235.171 360.967H226.022V377.619H235.171V360.967Z" fill="#2F2E41"/>
<path id="Vector_40" d="M215.348 380.717C219.559 380.717 222.972 379.417 222.972 377.813C222.972 376.209 219.559 374.908 215.348 374.908C211.137 374.908 207.724 376.209 207.724 377.813C207.724 379.417 211.137 380.717 215.348 380.717Z" fill="#2F2E41"/>
<path id="Vector_41" d="M233.646 380.33C237.857 380.33 241.271 379.029 241.271 377.425C241.271 375.821 237.857 374.521 233.646 374.521C229.436 374.521 226.022 375.821 226.022 377.425C226.022 379.029 229.436 380.33 233.646 380.33Z" fill="#2F2E41"/>
<path id="Vector_42" d="M192.234 308.507C189.802 297.444 197.575 286.266 209.596 283.539C221.617 280.812 233.332 287.57 235.764 298.633C238.196 309.696 230.229 313.776 218.209 316.503C206.188 319.229 194.665 319.57 192.234 308.507Z" fill="#5248F0"/>
<g id="hands">
<path id="Vector_43" d="M253.901 323.589C260.423 316.958 264.049 309.897 262 307.817C259.951 305.737 253.002 309.426 246.48 316.057C239.958 322.687 236.332 329.749 238.381 331.829C240.43 333.908 247.378 330.219 253.901 323.589Z" fill="#2F2E41"/>
<path id="Vector_44" d="M197.173 333.96C199.222 331.88 195.596 324.819 189.074 318.188C182.551 311.557 175.603 307.868 173.554 309.948C171.505 312.028 175.131 319.089 181.653 325.72C188.175 332.351 195.124 336.04 197.173 333.96Z" fill="#2F2E41"/>
</g>
<path id="Vector_45" d="M329.532 160.188L323.241 160.395C320.776 148.486 320.385 136.231 322.087 124.186L328.378 123.979C326.054 136.588 326.439 148.657 329.532 160.188Z" fill="white"/>
<path id="Vector_46" d="M370.333 200.068L351.462 200.688L351.598 204.948L370.468 204.328L370.333 200.068Z" fill="#3F3D56"/>
<path id="Vector_47" d="M367.601 154.853L361.752 152.493C364.171 140.574 368.628 129.179 374.922 118.825L380.771 121.186C373.686 131.805 369.296 143.028 367.601 154.853Z" fill="white"/>
<path id="Vector_48" d="M371.794 200.88L370.244 204.841L387.79 211.924L389.34 207.963L371.794 200.88Z" fill="#3F3D56"/>
<g id="balloon-right">
<path id="Vector_49" d="M404.539 142.796C403.54 111.427 382.39 86.6662 357.3 87.4914C301.46 89.1721 300.096 193.193 354.008 200.665L352.866 209.882L369.517 209.334L367.791 200.211C389.478 195.342 405.446 171.235 404.539 142.796Z" fill="#CF0063"/>
<path id="Vector_50" d="M315.522 363.184L313.622 362.28L360.342 201.334L362.242 202.239L315.522 363.184Z" fill="#3F3D56"/>
<path id="Vector_51" d="M443.208 169.322C454.618 140.155 444.955 108.877 421.627 99.4594C369.768 78.3581 327.643 173.179 374.137 201.891L369.469 209.879L384.95 216.128L386.953 207.064C408.751 211.393 432.864 195.765 443.208 169.322Z" fill="#6B00F4"/>
<path id="Vector_52" d="M315.152 358.947L313.329 357.893L378.557 206.682L380.38 207.735L315.152 358.947Z" fill="#3F3D56"/>
</g>
<path id="Vector_53" d="M25.2982 189.15L19.5289 191.704C12.9042 181.565 8.0814 170.325 5.27979 158.493L11.0492 155.939C13.479 168.527 18.2287 179.597 25.2982 189.15Z" fill="white"/>
<path id="Vector_54" d="M77.7219 210.883L60.4138 218.546L62.0902 222.453L79.3983 214.79L77.7219 210.883Z" fill="#3F3D56"/>
<g id="balloon-left">
<path id="Vector_55" d="M88.6635 144.822C76.3191 116.051 47.6567 100.987 24.6443 111.175C-26.6283 133.706 9.95874 230.87 62.7705 217.568L65.0642 226.561L80.3359 219.799L75.4123 211.971C93.7914 199.302 99.8552 170.907 88.6635 144.822Z" fill="#0044F4"/>
<path id="Vector_56" d="M117.767 363.595C117.497 363.663 117.212 363.62 116.973 363.474C116.735 363.328 116.564 363.092 116.497 362.818L70.8983 216.048L72.9344 215.535L118.533 362.305C118.566 362.441 118.572 362.582 118.552 362.72C118.531 362.858 118.484 362.991 118.413 363.111C118.342 363.231 118.248 363.335 118.138 363.419C118.027 363.502 117.901 363.562 117.767 363.595Z" fill="#3F3D56"/>
</g>
<path id="Vector_57" d="M129.954 410H20.1664C19.981 410 19.8031 409.925 19.672 409.792C19.5408 409.659 19.4672 409.478 19.4672 409.29C19.4672 409.101 19.5408 408.921 19.672 408.787C19.8031 408.654 19.981 408.579 20.1664 408.579H129.954C130.139 408.579 130.317 408.654 130.448 408.787C130.579 408.921 130.653 409.101 130.653 409.29C130.653 409.478 130.579 409.659 130.448 409.792C130.317 409.925 130.139 410 129.954 410Z" fill="#CCCCCC"/>
<path id="Vector_58" d="M408.967 410H299.18C298.994 410 298.817 409.925 298.685 409.792C298.554 409.659 298.481 409.478 298.481 409.29C298.481 409.101 298.554 408.921 298.685 408.787C298.817 408.654 298.994 408.579 299.18 408.579H408.967C409.153 408.579 409.33 408.654 409.462 408.787C409.593 408.921 409.666 409.101 409.666 409.29C409.666 409.478 409.593 409.659 409.462 409.792C409.33 409.925 409.153 410 408.967 410Z" fill="#CCCCCC"/>
<path id="Vector_59" d="M278.201 380.876H168.414C168.229 380.876 168.051 380.801 167.92 380.668C167.788 380.534 167.715 380.354 167.715 380.165C167.715 379.977 167.788 379.796 167.92 379.663C168.051 379.53 168.229 379.455 168.414 379.455H278.201C278.387 379.455 278.565 379.53 278.696 379.663C278.827 379.796 278.901 379.977 278.901 380.165C278.901 380.354 278.827 380.534 278.696 380.668C278.565 380.801 278.387 380.876 278.201 380.876Z" fill="#CCCCCC"/>
<path id="Vector_60" d="M220.18 343.078C225.865 343.078 230.473 338.397 230.473 332.622C230.473 326.847 225.865 322.166 220.18 322.166C214.496 322.166 209.887 326.847 209.887 332.622C209.887 338.397 214.496 343.078 220.18 343.078Z" fill="white"/>
<path id="Vector_61" d="M220.18 336.107C222.075 336.107 223.611 334.547 223.611 332.622C223.611 330.697 222.075 329.137 220.18 329.137C218.285 329.137 216.749 330.697 216.749 332.622C216.749 334.547 218.285 336.107 220.18 336.107Z" fill="#3F3D56"/>
<path id="Vector_62" d="M228.351 351.96C228.669 353.734 228.28 355.564 227.27 357.047C226.26 358.53 224.711 359.544 222.964 359.867C221.218 360.19 219.416 359.795 217.957 358.769C216.497 357.743 215.498 356.17 215.18 354.395L215.178 354.382C214.519 350.687 217.332 349.379 220.969 348.71C224.607 348.041 227.693 348.264 228.351 351.96Z" fill="white"/>
</g>
<defs>
<clipPath id="clip0">
<rect width="448" height="410" fill="white"/>
</clipPath>
</defs>
</svg>
